<svg width="187" height="45" viewBox="0 0 187 45" fill="none" xmlns="http://www.w3.org/2000/svg">
<path d="M9.97168 21.2832C9.91471 21.3743 9.82926 21.4541 9.71533 21.5225C9.61279 21.5794 9.51025 21.6079 9.40771 21.6079C9.28239 21.6079 9.16276 21.568 9.04883 21.4883C8.44499 21.0781 7.90951 20.7135 7.44238 20.3945C6.98665 20.0641 6.55371 19.7622 6.14355 19.4888C5.74479 19.2039 5.36312 18.9419 4.99854 18.7026C4.63395 18.452 4.25228 18.2013 3.85352 17.9507C3.46615 17.6886 3.0389 17.4209 2.57178 17.1475C2.11605 16.874 1.59196 16.5721 0.999512 16.2417C0.78304 16.1164 0.674805 15.9227 0.674805 15.6606C0.674805 15.41 0.794434 15.222 1.03369 15.0967C1.80843 14.6751 2.5376 14.2308 3.22119 13.7637C3.90479 13.2852 4.53711 12.8123 5.11816 12.3452C5.71061 11.8667 6.2404 11.411 6.70752 10.978C7.17464 10.5451 7.5734 10.1634 7.90381 9.83301C8.23421 9.5026 8.49056 9.23486 8.67285 9.02979C8.85514 8.82471 8.95199 8.71647 8.96338 8.70508C9.1001 8.53418 9.271 8.44873 9.47607 8.44873C9.65837 8.44873 9.81217 8.51709 9.9375 8.65381C10.0628 8.77913 10.1255 8.92725 10.1255 9.09814C10.1255 9.25765 10.0856 9.38298 10.0059 9.47412C9.96029 9.54248 9.7609 9.77035 9.40771 10.1577C9.06592 10.5451 8.58171 11.0293 7.95508 11.6104C7.32845 12.1914 6.5708 12.8408 5.68213 13.5586C4.79346 14.265 3.78516 14.9657 2.65723 15.6606C3.19271 15.9797 3.65983 16.2645 4.05859 16.5151C4.46875 16.7658 4.84473 17.005 5.18652 17.2329C5.53971 17.4494 5.87012 17.6659 6.17773 17.8823C6.49674 18.0988 6.83285 18.3324 7.18604 18.583C7.53923 18.8223 7.9266 19.09 8.34814 19.3862C8.76969 19.6825 9.2596 20.0186 9.81787 20.3945C10.0002 20.5199 10.0913 20.6965 10.0913 20.9243C10.0913 21.0496 10.0514 21.1693 9.97168 21.2832ZM52.9355 25.9146C52.9811 25.9943 53.0039 26.0911 53.0039 26.2051C53.0039 26.376 52.9412 26.5241 52.8159 26.6494C52.702 26.7747 52.5482 26.8374 52.3545 26.8374C52.2292 26.8374 52.1152 26.8089 52.0127 26.752C51.9215 26.695 51.8475 26.6095 51.7905 26.4956C51.5741 26.0741 51.3804 25.55 51.2095 24.9233C51.05 24.2853 50.9076 23.5789 50.7822 22.8042C50.6683 22.0295 50.5715 21.1978 50.4917 20.3091C50.4233 19.409 50.3664 18.4805 50.3208 17.5234C49.4663 17.6374 48.5036 17.7627 47.4326 17.8994C46.373 18.0361 45.1597 18.1956 43.7925 18.3779C42.8354 18.5146 41.8613 18.6343 40.8701 18.7368C38.432 21.3914 35.8628 23.408 33.1626 24.7866C30.4738 26.1538 27.7736 26.8374 25.062 26.8374C23.8543 26.8374 22.8062 26.7178 21.9175 26.4785C21.0402 26.2507 20.311 25.9943 19.73 25.7095C19.1603 25.4132 18.7331 25.1398 18.4482 24.8892C18.152 24.6385 17.9925 24.5018 17.9697 24.479C17.8558 24.3651 17.7988 24.217 17.7988 24.0347C17.7988 23.8524 17.8615 23.6986 17.9868 23.5732C18.1121 23.4479 18.2603 23.3853 18.4312 23.3853C18.6248 23.3853 18.7843 23.4536 18.9097 23.5903C18.9325 23.6131 19.0692 23.7327 19.3198 23.9492C19.5705 24.1543 19.9408 24.3765 20.4307 24.6157C20.932 24.855 21.5643 25.0715 22.3276 25.2651C23.091 25.4588 23.9967 25.5557 25.0449 25.5557C26.4805 25.5557 27.8534 25.362 29.1636 24.9746C30.4738 24.5872 31.71 24.0859 32.8721 23.4707C34.0456 22.8441 35.1336 22.132 36.1362 21.3345C37.1502 20.5369 38.0674 19.728 38.8877 18.9077C38.0788 18.9761 37.2756 19.0273 36.478 19.0615C35.6805 19.0957 34.8944 19.1128 34.1196 19.1128C32.5929 19.1128 31.1403 19.0273 29.7617 18.8564C28.3831 18.6855 27.1698 18.4007 26.1216 18.002C25.0734 17.5918 24.236 17.0506 23.6094 16.3784C22.9941 15.7062 22.6865 14.8688 22.6865 13.8662C22.6865 13.4105 22.7777 12.9548 22.96 12.499C23.1536 12.0433 23.3815 11.6331 23.6436 11.2686C23.9056 10.8926 24.179 10.5907 24.4639 10.3628C24.7487 10.1235 24.9937 10.0039 25.1987 10.0039C25.3582 10.0039 25.5063 10.0609 25.6431 10.1748C25.7798 10.2887 25.8481 10.4425 25.8481 10.6362C25.8481 10.7388 25.8254 10.8413 25.7798 10.9438C25.7342 11.035 25.6659 11.109 25.5747 11.166C25.5519 11.1888 25.4551 11.2686 25.2842 11.4053C25.1133 11.542 24.931 11.73 24.7373 11.9692C24.5436 12.1971 24.367 12.4762 24.2075 12.8066C24.048 13.1257 23.9683 13.4731 23.9683 13.8491C23.9683 14.4985 24.1904 15.0739 24.6348 15.5752C25.0905 16.0651 25.7456 16.481 26.6001 16.8228C27.466 17.1532 28.5256 17.4038 29.7788 17.5747C31.0321 17.7456 32.4619 17.8311 34.0684 17.8311C34.9912 17.8311 35.9653 17.8026 36.9907 17.7456C38.0161 17.6886 39.0985 17.6032 40.2378 17.4893C40.7847 16.8854 41.2689 16.3158 41.6904 15.7803C42.112 15.2448 42.4709 14.7663 42.7671 14.3447C43.257 13.6497 43.7697 12.9092 44.3052 12.123C44.8407 11.3369 45.3704 10.5394 45.8945 9.73047C46.43 8.92155 46.9484 8.12402 47.4497 7.33789C47.9624 6.54036 48.4409 5.79411 48.8853 5.09912C49.3296 4.39274 49.7284 3.75472 50.0815 3.18506C50.4347 2.604 50.7253 2.12549 50.9531 1.74951C51.0215 1.44189 51.124 1.16276 51.2607 0.912109C51.3975 0.650065 51.6196 0.519043 51.9272 0.519043C52.0981 0.519043 52.2633 0.593099 52.4229 0.741211C52.5824 0.87793 52.6621 1.05452 52.6621 1.271C52.6621 1.4305 52.6051 1.6014 52.4912 1.78369C52.3773 1.96598 52.269 2.11979 52.1665 2.24512C52.1323 2.46159 52.0754 2.92301 51.9956 3.62939C51.9272 4.33577 51.8532 5.20166 51.7734 6.22705C51.7051 7.24105 51.6424 8.36328 51.5854 9.59375C51.5399 10.8128 51.5171 12.049 51.5171 13.3022C51.5171 13.7694 51.5171 14.2308 51.5171 14.6865C51.5171 15.1423 51.5285 15.6037 51.5513 16.0708C53.2603 15.8543 54.5078 15.7062 55.2939 15.6265C56.0801 15.5353 56.4959 15.4897 56.5415 15.4897C56.6896 15.4897 56.832 15.5524 56.9688 15.6777C57.1169 15.7917 57.1909 15.9455 57.1909 16.1392C57.1909 16.2987 57.134 16.4411 57.02 16.5664C56.9175 16.6803 56.7808 16.7487 56.6099 16.7715C56.4048 16.7943 56.1655 16.8228 55.8921 16.8569C55.6187 16.8911 55.2826 16.931 54.8838 16.9766C54.485 17.0221 54.0179 17.0791 53.4824 17.1475C52.9469 17.2044 52.3203 17.2785 51.6025 17.3696C51.6367 18.3039 51.688 19.2039 51.7563 20.0698C51.8361 20.9243 51.9272 21.7218 52.0298 22.4624C52.1437 23.203 52.2747 23.8695 52.4229 24.4619C52.571 25.0544 52.7419 25.5386 52.9355 25.9146ZM43.6216 17.0962C44.966 16.9139 46.1851 16.7544 47.2788 16.6177C48.384 16.4696 49.3809 16.3385 50.2695 16.2246C50.2581 15.7347 50.2467 15.2448 50.2354 14.7549C50.2354 14.265 50.2354 13.7694 50.2354 13.2681C50.2354 11.6616 50.2638 10.1292 50.3208 8.6709C50.3778 7.20117 50.4575 5.92513 50.5601 4.84277C50.1043 5.56055 49.5973 6.35807 49.0391 7.23535C48.4922 8.10124 47.9225 8.98991 47.3301 9.90137C46.7376 10.8014 46.1395 11.6958 45.5356 12.5845C44.9318 13.4731 44.3564 14.3049 43.8096 15.0796C43.5361 15.467 43.257 15.8429 42.9722 16.2075C42.6873 16.5721 42.4025 16.931 42.1177 17.2842C42.3683 17.2614 42.6133 17.2329 42.8525 17.1987C43.1032 17.1646 43.3595 17.1304 43.6216 17.0962ZM67.5815 21.2661C67.4562 21.5282 67.2967 21.8415 67.103 22.2061C66.9207 22.5592 66.71 22.9295 66.4707 23.3169C66.2314 23.7043 65.9637 24.0916 65.6675 24.479C65.3713 24.855 65.0465 25.1968 64.6934 25.5044C64.3516 25.8006 63.9813 26.0399 63.5825 26.2222C63.1951 26.4159 62.7793 26.5127 62.335 26.5127C61.6514 26.5127 61.0646 26.3019 60.5747 25.8804C60.0848 25.4588 59.6689 24.9062 59.3271 24.2227C58.9854 23.5391 58.7062 22.7643 58.4897 21.8984C58.2847 21.0212 58.1252 20.1325 58.0112 19.2324C57.8973 18.321 57.8175 17.438 57.772 16.5835C57.7378 15.729 57.7207 14.9714 57.7207 14.3105C57.7207 13.3535 57.7492 12.3623 57.8062 11.3369C57.8745 10.3115 57.9771 9.30892 58.1138 8.3291C58.2505 7.34928 58.4214 6.42074 58.6265 5.54346C58.8429 4.66618 59.0936 3.89714 59.3784 3.23633C59.6746 2.57552 60.0107 2.05143 60.3867 1.66406C60.7627 1.27669 61.1899 1.08301 61.6685 1.08301C62.0444 1.08301 62.3805 1.17415 62.6768 1.35645C62.9844 1.52734 63.2407 1.81217 63.4458 2.21094C63.6509 2.6097 63.8104 3.12809 63.9243 3.76611C64.0382 4.40413 64.0952 5.18457 64.0952 6.10742C64.0952 7.24674 63.9756 8.42594 63.7363 9.64502C63.4971 10.8527 63.1724 12.0718 62.7622 13.3022C62.3521 14.5327 61.8678 15.7632 61.3096 16.9937C60.7513 18.2127 60.1532 19.4033 59.5151 20.5654C59.8 22.0124 60.1816 23.1517 60.6602 23.9834C61.1387 24.8037 61.714 25.2139 62.3862 25.2139C62.842 25.2139 63.2806 25.0373 63.7021 24.6841C64.1237 24.3195 64.5111 23.8923 64.8643 23.4023C65.2174 22.9124 65.5251 22.4168 65.7871 21.9155C66.0605 21.4028 66.2713 20.9927 66.4194 20.6851C66.4764 20.5711 66.5562 20.4857 66.6587 20.4287C66.7612 20.3604 66.8752 20.3262 67.0005 20.3262C67.1942 20.3262 67.348 20.3945 67.4619 20.5312C67.5872 20.668 67.6499 20.8218 67.6499 20.9927C67.6499 21.061 67.6271 21.1522 67.5815 21.2661ZM59.0195 14.396C59.0195 15.1252 59.0366 15.8258 59.0708 16.498C59.105 17.1702 59.1506 17.814 59.2075 18.4292C59.686 17.5063 60.1418 16.5265 60.5747 15.4897C61.0076 14.4416 61.3893 13.3877 61.7197 12.3281C62.0501 11.2572 62.3122 10.1976 62.5059 9.14941C62.7109 8.08984 62.8135 7.08154 62.8135 6.12451C62.8135 4.78011 62.7052 3.81738 62.4888 3.23633C62.2723 2.65527 61.9818 2.36475 61.6172 2.36475C61.3779 2.36475 61.1444 2.52995 60.9165 2.86035C60.7 3.19076 60.495 3.64079 60.3013 4.21045C60.1076 4.78011 59.931 5.45231 59.7715 6.22705C59.612 7.00179 59.4753 7.8335 59.3613 8.72217C59.2588 9.61084 59.1733 10.5394 59.105 11.5078C59.048 12.4762 59.0195 13.439 59.0195 14.396ZM72.623 27.7432C73.1016 27.1165 73.563 26.4899 74.0073 25.8633C74.4517 25.2367 74.8618 24.6214 75.2378 24.0176C75.6252 23.4137 75.9727 22.8327 76.2803 22.2744C76.5993 21.7161 76.867 21.1978 77.0835 20.7192C77.1405 20.5939 77.2145 20.5028 77.3057 20.4458C77.4082 20.3774 77.5221 20.3433 77.6475 20.3433C77.8411 20.3433 78.0007 20.4116 78.126 20.5483C78.2513 20.6737 78.314 20.8218 78.314 20.9927C78.314 21.0724 78.2969 21.1522 78.2627 21.2319C78.012 21.7902 77.7044 22.394 77.3398 23.0435C76.9753 23.6815 76.5651 24.348 76.1094 25.043C75.665 25.738 75.1808 26.4443 74.6567 27.1621C74.144 27.8799 73.6086 28.5863 73.0503 29.2812C73.5402 29.8509 73.9959 30.5573 74.4175 31.4004C74.8504 32.2435 75.2207 33.1493 75.5283 34.1177C75.8359 35.0861 76.0752 36.0716 76.2461 37.0742C76.4284 38.0768 76.5195 39.0168 76.5195 39.894C76.5195 40.8853 76.4227 41.6771 76.229 42.2695C76.0353 42.862 75.8018 43.3177 75.5283 43.6367C75.2549 43.9557 74.9701 44.1608 74.6738 44.252C74.3776 44.3545 74.127 44.4058 73.9219 44.4058C73.2952 44.4058 72.7996 44.2064 72.4351 43.8076C72.0819 43.4202 71.8084 42.8449 71.6147 42.0815C71.4325 41.3296 71.3128 40.3953 71.2559 39.2788C71.2103 38.1623 71.1875 36.8748 71.1875 35.4165C71.1875 34.4595 71.1932 33.491 71.2046 32.5112C71.2274 31.5314 71.2559 30.5687 71.29 29.623C71.3242 28.6774 71.3641 27.766 71.4097 26.8887C71.4552 26.0228 71.5065 25.2196 71.5635 24.479C71.1989 25.0259 70.7887 25.4474 70.333 25.7437C69.8887 26.0399 69.3931 26.188 68.8462 26.188C68.436 26.188 68.0601 26.1082 67.7183 25.9487C67.3879 25.7892 67.103 25.5728 66.8638 25.2993C66.6245 25.0145 66.4422 24.6841 66.3169 24.3081C66.1916 23.9321 66.1289 23.5277 66.1289 23.0947C66.1289 22.2061 66.277 21.4256 66.5732 20.7534C66.8809 20.0698 67.2682 19.5002 67.7354 19.0444C68.2025 18.5887 68.7152 18.2469 69.2734 18.019C69.8431 17.7912 70.39 17.6772 70.9141 17.6772C71.2673 17.6772 71.592 17.7285 71.8882 17.8311C72.1844 17.9222 72.4351 18.0247 72.6401 18.1387C72.8452 18.2526 73.0047 18.3608 73.1187 18.4634C73.244 18.5545 73.3123 18.6058 73.3237 18.6172C73.4491 18.7311 73.5117 18.8849 73.5117 19.0786C73.5117 19.2495 73.4491 19.4033 73.3237 19.54C73.2098 19.6654 73.056 19.728 72.8623 19.728C72.7598 19.728 72.6743 19.7109 72.606 19.6768C72.549 19.6426 72.4863 19.597 72.418 19.54C72.304 19.4489 72.1331 19.3293 71.9053 19.1812C71.6888 19.033 71.3641 18.959 70.9312 18.959C70.5894 18.959 70.2134 19.0387 69.8032 19.1982C69.3931 19.3464 69.0114 19.5856 68.6582 19.916C68.305 20.2464 68.0088 20.6737 67.7695 21.1978C67.5303 21.7104 67.4106 22.3314 67.4106 23.0605C67.4106 23.5846 67.5246 24.0233 67.7524 24.3765C67.9917 24.7183 68.3677 24.8892 68.8804 24.8892C69.131 24.8892 69.4045 24.8094 69.7007 24.6499C70.0083 24.479 70.2988 24.2284 70.5723 23.8979C70.8571 23.5675 71.1077 23.1574 71.3242 22.6675C71.5521 22.1776 71.7116 21.6079 71.8027 20.9585C71.8255 20.799 71.8996 20.668 72.0249 20.5654C72.1502 20.4515 72.2926 20.3945 72.4521 20.3945C72.6344 20.3945 72.7826 20.4629 72.8965 20.5996C73.0218 20.7249 73.0845 20.873 73.0845 21.0439C73.0845 21.0667 73.0674 21.2661 73.0332 21.6421C73.0104 22.0067 72.9762 22.4966 72.9307 23.1118C72.8851 23.7157 72.8338 24.4163 72.7769 25.2139C72.7199 26.0114 72.6686 26.8545 72.623 27.7432ZM72.5034 30.6484C72.492 31.0016 72.4806 31.3434 72.4692 31.6738C72.4692 32.0042 72.4692 32.3289 72.4692 32.6479C72.4692 34.1177 72.4749 35.4849 72.4863 36.7495C72.4977 38.0256 72.5433 39.1307 72.623 40.0649C72.7142 41.0106 72.8566 41.7511 73.0503 42.2866C73.2554 42.8335 73.5402 43.1069 73.9048 43.1069C74.201 43.1069 74.4346 42.9759 74.6055 42.7139C74.7878 42.4632 74.9245 42.1613 75.0156 41.8081C75.1068 41.4549 75.1637 41.0903 75.1865 40.7144C75.2207 40.3498 75.2378 40.0535 75.2378 39.8257C75.2378 39.0623 75.1637 38.2534 75.0156 37.3989C74.8789 36.5444 74.6852 35.7013 74.4346 34.8696C74.1953 34.0379 73.9048 33.2518 73.563 32.5112C73.2326 31.7821 72.8794 31.1611 72.5034 30.6484ZM82.7744 24.0859C82.3757 24.7354 81.9085 25.248 81.373 25.624C80.849 26 80.3192 26.188 79.7837 26.188C79.3507 26.188 78.9634 26.1082 78.6216 25.9487C78.2798 25.7892 77.9836 25.5671 77.7329 25.2822C77.4823 24.986 77.2886 24.6328 77.1519 24.2227C77.0265 23.8125 76.9639 23.3511 76.9639 22.8384C76.9639 22.0409 77.0379 21.3345 77.186 20.7192C77.3455 20.104 77.5164 19.5913 77.6987 19.1812C77.881 18.7596 78.0519 18.4406 78.2114 18.2241C78.3709 18.0076 78.4507 17.8994 78.4507 17.8994C78.5076 17.8311 78.576 17.7798 78.6558 17.7456C78.7469 17.7114 78.8381 17.6943 78.9292 17.6943C79.1115 17.6943 79.2596 17.7627 79.3735 17.8994C79.4989 18.0247 79.5615 18.1729 79.5615 18.3438C79.5615 18.4121 79.5444 18.4805 79.5103 18.5488C79.4875 18.6172 79.459 18.6855 79.4248 18.7539C79.3678 18.8564 79.2767 19.016 79.1514 19.2324C79.026 19.4375 78.895 19.7109 78.7583 20.0527C78.6216 20.3945 78.502 20.799 78.3994 21.2661C78.2969 21.7218 78.2456 22.2459 78.2456 22.8384C78.2456 23.5106 78.3766 24.0233 78.6387 24.3765C78.9121 24.7183 79.2938 24.8892 79.7837 24.8892C79.9888 24.8892 80.2223 24.8265 80.4844 24.7012C80.7578 24.5645 81.0199 24.3594 81.2705 24.0859C81.5326 23.8125 81.7604 23.465 81.9541 23.0435C82.1478 22.6219 82.2731 22.1263 82.3301 21.5566L82.5864 18.6172C82.6092 18.4463 82.6833 18.3039 82.8086 18.1899C82.9339 18.076 83.082 18.019 83.2529 18.019C83.4466 18.019 83.6004 18.0931 83.7144 18.2412C83.8283 18.3779 83.8853 18.5374 83.8853 18.7197L83.6631 21.5566C83.6403 21.7959 83.646 22.1092 83.6802 22.4966C83.7257 22.884 83.8112 23.2656 83.9365 23.6416C84.0618 24.0176 84.2498 24.3423 84.5005 24.6157C84.7511 24.8778 85.0815 25.0088 85.4917 25.0088C85.7879 25.0088 86.0785 24.9347 86.3633 24.7866C86.6481 24.6271 86.9215 24.422 87.1836 24.1714C87.4456 23.9207 87.6849 23.6416 87.9014 23.334C88.1292 23.015 88.3343 22.696 88.5166 22.377C88.7103 22.0579 88.8755 21.756 89.0122 21.4712C89.1489 21.175 89.2629 20.9243 89.354 20.7192C89.411 20.5939 89.4907 20.4971 89.5933 20.4287C89.6958 20.3604 89.8097 20.3262 89.9351 20.3262C90.1401 20.3262 90.2996 20.3945 90.4136 20.5312C90.5275 20.668 90.5845 20.8161 90.5845 20.9756C90.5845 21.0667 90.5674 21.1522 90.5332 21.2319C90.4876 21.3231 90.3965 21.5168 90.2598 21.813C90.1344 22.0978 89.9635 22.4282 89.7471 22.8042C89.542 23.1688 89.2913 23.5562 88.9951 23.9663C88.6989 24.3765 88.3685 24.7581 88.0039 25.1113C87.6393 25.4531 87.2406 25.738 86.8076 25.9658C86.3861 26.1823 85.9303 26.2905 85.4404 26.2905C84.7682 26.2905 84.21 26.1025 83.7656 25.7266C83.3213 25.3392 82.9909 24.7923 82.7744 24.0859ZM92.1567 12.5845C92.1567 13.0174 92.0029 13.3877 91.6953 13.6953C91.3991 13.9915 91.0345 14.1396 90.6016 14.1396C90.1686 14.1396 89.7983 13.9915 89.4907 13.6953C89.1945 13.3877 89.0464 13.0174 89.0464 12.5845C89.0464 12.368 89.0863 12.1686 89.166 11.9863C89.2458 11.7926 89.354 11.6274 89.4907 11.4907C89.6388 11.3426 89.804 11.2287 89.9863 11.1489C90.18 11.0692 90.3851 11.0293 90.6016 11.0293C90.818 11.0293 91.0174 11.0692 91.1997 11.1489C91.3934 11.2287 91.5586 11.3426 91.6953 11.4907C91.8434 11.6274 91.9574 11.7926 92.0371 11.9863C92.1169 12.1686 92.1567 12.368 92.1567 12.5845ZM89.3882 22.5991C89.3882 20.9585 89.4907 19.3236 89.6958 17.6943C89.7186 17.5348 89.7869 17.3981 89.9009 17.2842C90.0262 17.1589 90.1857 17.0962 90.3794 17.0962C90.5503 17.0962 90.6927 17.1646 90.8066 17.3013C90.9206 17.4266 90.9775 17.5747 90.9775 17.7456C90.9775 17.814 90.9604 18.019 90.9263 18.3608C90.9035 18.7026 90.8693 19.1128 90.8237 19.5913C90.7896 20.0584 90.7554 20.5597 90.7212 21.0952C90.6984 21.6193 90.687 22.1035 90.687 22.5479C90.687 23.1517 90.744 23.6416 90.8579 24.0176C90.9832 24.3822 91.137 24.667 91.3193 24.8721C91.513 25.0771 91.7124 25.2139 91.9175 25.2822C92.134 25.3506 92.339 25.3848 92.5327 25.3848C92.8517 25.3848 93.1821 25.2708 93.5239 25.043C93.8657 24.8151 94.2132 24.4961 94.5664 24.0859C94.931 23.6758 95.2956 23.1859 95.6602 22.6162C96.0247 22.0352 96.3836 21.3914 96.7368 20.6851C96.7938 20.5711 96.8735 20.4857 96.9761 20.4287C97.0786 20.3604 97.1925 20.3262 97.3179 20.3262C97.5002 20.3262 97.6483 20.3945 97.7622 20.5312C97.8875 20.668 97.9502 20.8161 97.9502 20.9756C97.9502 21.0895 97.9274 21.1864 97.8818 21.2661C97.7451 21.5282 97.5742 21.8472 97.3691 22.2231C97.1641 22.5991 96.9305 22.9865 96.6685 23.3853C96.4064 23.784 96.1159 24.1828 95.7969 24.5815C95.4893 24.9689 95.1589 25.3221 94.8057 25.6411C94.4525 25.9487 94.0822 26.1994 93.6948 26.3931C93.3075 26.5868 92.9144 26.6836 92.5156 26.6836C92.0029 26.6836 91.5529 26.5754 91.1655 26.3589C90.7782 26.1424 90.4478 25.8519 90.1743 25.4873C89.9123 25.1227 89.7129 24.6955 89.5762 24.2056C89.4508 23.7043 89.3882 23.1688 89.3882 22.5991ZM91.1997 12.5845C91.1997 12.425 91.137 12.2882 91.0117 12.1743C90.8978 12.049 90.7611 11.9863 90.6016 11.9863C90.4421 11.9863 90.3053 12.049 90.1914 12.1743C90.0775 12.2882 90.0205 12.425 90.0205 12.5845C90.0205 12.744 90.0775 12.8807 90.1914 12.9946C90.3053 13.1086 90.4421 13.1655 90.6016 13.1655C90.7611 13.1655 90.8978 13.1086 91.0117 12.9946C91.137 12.8807 91.1997 12.744 91.1997 12.5845ZM104.735 28.5293C104.803 29.4521 104.837 30.5573 104.837 31.8447C104.837 33.2233 104.752 34.488 104.581 35.6387C104.41 36.8008 104.16 37.7977 103.829 38.6294C103.499 39.4725 103.089 40.1276 102.599 40.5947C102.109 41.0618 101.545 41.2954 100.907 41.2954C100.588 41.2954 100.286 41.2214 100.001 41.0732C99.7161 40.9251 99.4655 40.7144 99.249 40.4409C99.0439 40.1675 98.8787 39.8428 98.7534 39.4668C98.6395 39.0908 98.5825 38.6693 98.5825 38.2021C98.5825 37.5072 98.6623 36.7723 98.8218 35.9976C98.9927 35.2228 99.2661 34.4139 99.6421 33.5708C100.018 32.7277 100.514 31.8447 101.129 30.9219C101.744 30.0104 102.502 29.0591 103.402 28.0679C103.356 27.578 103.294 27.1222 103.214 26.7007C103.146 26.2791 103.054 25.9146 102.94 25.6069C102.826 25.2993 102.69 25.0601 102.53 24.8892C102.382 24.7183 102.2 24.6328 101.983 24.6328C101.915 24.6328 101.835 24.6442 101.744 24.667C101.482 24.9746 101.243 25.2139 101.026 25.3848C100.821 25.5557 100.633 25.6867 100.462 25.7778C100.292 25.869 100.143 25.9259 100.018 25.9487C99.9041 25.9715 99.8187 25.9829 99.7617 25.9829C99.568 25.9829 99.38 25.9316 99.1978 25.8291C99.0269 25.7152 98.9414 25.5101 98.9414 25.2139C98.9414 25.1113 98.9756 24.9803 99.0439 24.8208C99.1237 24.6613 99.249 24.4961 99.4199 24.3252C99.5908 24.1429 99.813 23.9777 100.086 23.8296C100.371 23.6701 100.713 23.5505 101.112 23.4707C101.864 22.6618 102.451 21.9212 102.872 21.249C103.294 20.5654 103.504 19.9274 103.504 19.335C103.504 18.8223 103.345 18.4121 103.026 18.1045C102.707 17.7969 102.302 17.6431 101.812 17.6431C101.129 17.6431 100.445 17.9621 99.7617 18.6001C99.0781 19.2381 98.4629 20.1211 97.916 21.249C97.7907 21.4997 97.5913 21.625 97.3179 21.625C97.1242 21.625 96.9704 21.5566 96.8564 21.4199C96.7425 21.2832 96.6855 21.1351 96.6855 20.9756C96.6855 20.873 96.7083 20.7819 96.7539 20.7021C97.4261 19.3236 98.2008 18.2526 99.0781 17.4893C99.9554 16.7259 100.873 16.3442 101.83 16.3442C102.217 16.3442 102.587 16.4126 102.94 16.5493C103.305 16.686 103.624 16.8854 103.897 17.1475C104.171 17.3981 104.387 17.7114 104.547 18.0874C104.706 18.452 104.786 18.8735 104.786 19.3521C104.786 19.7508 104.729 20.1382 104.615 20.5142C104.513 20.8787 104.37 21.2376 104.188 21.5908C104.006 21.9326 103.795 22.263 103.556 22.582C103.316 22.901 103.071 23.2087 102.821 23.5049C103.128 23.6416 103.379 23.8353 103.573 24.0859C103.778 24.3366 103.943 24.6157 104.068 24.9233C104.205 25.231 104.308 25.55 104.376 25.8804C104.444 26.2108 104.501 26.5298 104.547 26.8374C104.98 26.3703 105.43 25.8747 105.897 25.3506C106.364 24.8265 106.814 24.2967 107.247 23.7612C107.68 23.2257 108.073 22.7017 108.426 22.189C108.791 21.6649 109.076 21.175 109.281 20.7192C109.338 20.5939 109.417 20.5028 109.52 20.4458C109.623 20.3774 109.736 20.3433 109.862 20.3433C110.056 20.3433 110.209 20.4116 110.323 20.5483C110.449 20.6737 110.511 20.8161 110.511 20.9756C110.511 21.0667 110.494 21.1522 110.46 21.2319C110.209 21.8016 109.856 22.4168 109.4 23.0776C108.945 23.7271 108.449 24.3822 107.914 25.043C107.378 25.6924 106.831 26.319 106.273 26.9229C105.715 27.5267 105.202 28.0622 104.735 28.5293ZM103.521 29.8965C102.804 30.7738 102.211 31.5998 101.744 32.3745C101.277 33.1493 100.901 33.8784 100.616 34.562C100.343 35.2456 100.149 35.8779 100.035 36.459C99.9212 37.0514 99.8643 37.5926 99.8643 38.0825C99.8643 38.6636 99.9668 39.1307 100.172 39.4839C100.377 39.8371 100.628 40.0137 100.924 40.0137C101.323 40.0137 101.681 39.8086 102 39.3984C102.331 38.9883 102.61 38.4243 102.838 37.7065C103.066 37.0002 103.242 36.1628 103.368 35.1943C103.493 34.2259 103.556 33.1834 103.556 32.0669C103.556 31.7707 103.55 31.4346 103.539 31.0586C103.539 30.694 103.533 30.3066 103.521 29.8965ZM122.508 21.2319C122.463 21.3231 122.366 21.5168 122.218 21.813C122.081 22.0978 121.899 22.4282 121.671 22.8042C121.454 23.1802 121.198 23.5732 120.902 23.9834C120.606 24.3936 120.275 24.7695 119.911 25.1113C119.546 25.4531 119.153 25.738 118.731 25.9658C118.31 26.1823 117.866 26.2905 117.398 26.2905C116.738 26.2905 116.179 26.0798 115.724 25.6582C115.279 25.2367 114.955 24.7069 114.75 24.0688C114.362 24.7183 113.901 25.2367 113.365 25.624C112.83 26 112.294 26.188 111.759 26.188C111.337 26.188 110.956 26.1139 110.614 25.9658C110.272 25.8063 109.981 25.5898 109.742 25.3164C109.503 25.0316 109.315 24.7012 109.178 24.3252C109.053 23.9492 108.99 23.5391 108.99 23.0947C108.99 22.2061 109.138 21.4256 109.435 20.7534C109.742 20.0698 110.13 19.5002 110.597 19.0444C111.064 18.5887 111.576 18.2469 112.135 18.019C112.704 17.7912 113.251 17.6772 113.775 17.6772C114.129 17.6772 114.453 17.7285 114.75 17.8311C115.046 17.9222 115.296 18.0247 115.501 18.1387C115.718 18.2526 115.883 18.3608 115.997 18.4634C116.111 18.5545 116.174 18.6058 116.185 18.6172C116.31 18.7653 116.373 18.9191 116.373 19.0786C116.373 19.2495 116.31 19.4033 116.185 19.54C116.06 19.6654 115.912 19.728 115.741 19.728C115.558 19.728 115.405 19.6654 115.279 19.54C115.257 19.5173 115.205 19.4774 115.125 19.4204C115.046 19.3521 114.938 19.2837 114.801 19.2153C114.664 19.147 114.499 19.09 114.305 19.0444C114.123 18.9875 113.912 18.959 113.673 18.959C113.32 18.959 112.944 19.0387 112.545 19.1982C112.146 19.3577 111.782 19.6084 111.451 19.9502C111.121 20.2806 110.842 20.7021 110.614 21.2148C110.397 21.7161 110.289 22.3143 110.289 23.0093C110.289 23.2257 110.312 23.4479 110.357 23.6758C110.403 23.8923 110.483 24.0916 110.597 24.2739C110.711 24.4562 110.864 24.6043 111.058 24.7183C111.252 24.8322 111.491 24.8892 111.776 24.8892C111.981 24.8892 112.215 24.8208 112.477 24.6841C112.75 24.5474 113.006 24.3366 113.246 24.0518C113.496 23.7669 113.718 23.408 113.912 22.9751C114.117 22.5422 114.26 22.0295 114.339 21.437C114.362 21.2775 114.436 21.1465 114.562 21.0439C114.687 20.93 114.835 20.873 115.006 20.873C115.165 20.873 115.302 20.9357 115.416 21.061C115.541 21.1864 115.61 21.3288 115.621 21.4883C115.632 21.7048 115.655 22.0124 115.689 22.4111C115.724 22.7985 115.798 23.1859 115.912 23.5732C116.037 23.9606 116.219 24.2967 116.458 24.5815C116.698 24.8664 117.028 25.0088 117.45 25.0088C117.723 25.0088 117.991 24.9347 118.253 24.7866C118.526 24.6385 118.788 24.4448 119.039 24.2056C119.301 23.9549 119.546 23.6758 119.774 23.3682C120.013 23.0492 120.23 22.7301 120.423 22.4111C120.617 22.0921 120.788 21.7845 120.936 21.4883C121.084 21.1921 121.209 20.9357 121.312 20.7192C121.369 20.5939 121.449 20.4971 121.551 20.4287C121.665 20.3604 121.785 20.3262 121.91 20.3262C122.104 20.3262 122.258 20.4002 122.372 20.5483C122.497 20.6851 122.56 20.8332 122.56 20.9927C122.56 21.0724 122.542 21.1522 122.508 21.2319ZM131.053 21.2661C130.928 21.5282 130.768 21.8415 130.575 22.2061C130.392 22.5592 130.182 22.9295 129.942 23.3169C129.703 23.7043 129.435 24.0916 129.139 24.479C128.843 24.855 128.518 25.1968 128.165 25.5044C127.823 25.8006 127.453 26.0399 127.054 26.2222C126.667 26.4159 126.251 26.5127 125.807 26.5127C125.123 26.5127 124.536 26.3019 124.046 25.8804C123.556 25.4588 123.141 24.9062 122.799 24.2227C122.457 23.5391 122.178 22.7643 121.961 21.8984C121.756 21.0212 121.597 20.1325 121.483 19.2324C121.369 18.321 121.289 17.438 121.244 16.5835C121.209 15.729 121.192 14.9714 121.192 14.3105C121.192 13.3535 121.221 12.3623 121.278 11.3369C121.346 10.3115 121.449 9.30892 121.585 8.3291C121.722 7.34928 121.893 6.42074 122.098 5.54346C122.315 4.66618 122.565 3.89714 122.85 3.23633C123.146 2.57552 123.482 2.05143 123.858 1.66406C124.234 1.27669 124.662 1.08301 125.14 1.08301C125.516 1.08301 125.852 1.17415 126.148 1.35645C126.456 1.52734 126.712 1.81217 126.917 2.21094C127.123 2.6097 127.282 3.12809 127.396 3.76611C127.51 4.40413 127.567 5.18457 127.567 6.10742C127.567 7.24674 127.447 8.42594 127.208 9.64502C126.969 10.8527 126.644 12.0718 126.234 13.3022C125.824 14.5327 125.34 15.7632 124.781 16.9937C124.223 18.2127 123.625 19.4033 122.987 20.5654C123.272 22.0124 123.653 23.1517 124.132 23.9834C124.61 24.8037 125.186 25.2139 125.858 25.2139C126.314 25.2139 126.752 25.0373 127.174 24.6841C127.595 24.3195 127.983 23.8923 128.336 23.4023C128.689 22.9124 128.997 22.4168 129.259 21.9155C129.532 21.4028 129.743 20.9927 129.891 20.6851C129.948 20.5711 130.028 20.4857 130.13 20.4287C130.233 20.3604 130.347 20.3262 130.472 20.3262C130.666 20.3262 130.82 20.3945 130.934 20.5312C131.059 20.668 131.122 20.8218 131.122 20.9927C131.122 21.061 131.099 21.1522 131.053 21.2661ZM122.491 14.396C122.491 15.1252 122.508 15.8258 122.542 16.498C122.577 17.1702 122.622 17.814 122.679 18.4292C123.158 17.5063 123.613 16.5265 124.046 15.4897C124.479 14.4416 124.861 13.3877 125.191 12.3281C125.522 11.2572 125.784 10.1976 125.978 9.14941C126.183 8.08984 126.285 7.08154 126.285 6.12451C126.285 4.78011 126.177 3.81738 125.96 3.23633C125.744 2.65527 125.453 2.36475 125.089 2.36475C124.85 2.36475 124.616 2.52995 124.388 2.86035C124.172 3.19076 123.967 3.64079 123.773 4.21045C123.579 4.78011 123.403 5.45231 123.243 6.22705C123.084 7.00179 122.947 7.8335 122.833 8.72217C122.73 9.61084 122.645 10.5394 122.577 11.5078C122.52 12.4762 122.491 13.439 122.491 14.396ZM143.119 21.2319C143.073 21.3231 142.976 21.5168 142.828 21.813C142.691 22.0978 142.509 22.4282 142.281 22.8042C142.065 23.1802 141.808 23.5732 141.512 23.9834C141.216 24.3936 140.886 24.7695 140.521 25.1113C140.156 25.4531 139.763 25.738 139.342 25.9658C138.92 26.1823 138.476 26.2905 138.009 26.2905C137.348 26.2905 136.79 26.0798 136.334 25.6582C135.89 25.2367 135.565 24.7069 135.36 24.0688C134.972 24.7183 134.511 25.2367 133.976 25.624C133.44 26 132.905 26.188 132.369 26.188C131.948 26.188 131.566 26.1139 131.224 25.9658C130.882 25.8063 130.592 25.5898 130.353 25.3164C130.113 25.0316 129.925 24.7012 129.789 24.3252C129.663 23.9492 129.601 23.5391 129.601 23.0947C129.601 22.2061 129.749 21.4256 130.045 20.7534C130.353 20.0698 130.74 19.5002 131.207 19.0444C131.674 18.5887 132.187 18.2469 132.745 18.019C133.315 17.7912 133.862 17.6772 134.386 17.6772C134.739 17.6772 135.064 17.7285 135.36 17.8311C135.656 17.9222 135.907 18.0247 136.112 18.1387C136.328 18.2526 136.493 18.3608 136.607 18.4634C136.721 18.5545 136.784 18.6058 136.795 18.6172C136.921 18.7653 136.983 18.9191 136.983 19.0786C136.983 19.2495 136.921 19.4033 136.795 19.54C136.67 19.6654 136.522 19.728 136.351 19.728C136.169 19.728 136.015 19.6654 135.89 19.54C135.867 19.5173 135.816 19.4774 135.736 19.4204C135.656 19.3521 135.548 19.2837 135.411 19.2153C135.274 19.147 135.109 19.09 134.916 19.0444C134.733 18.9875 134.522 18.959 134.283 18.959C133.93 18.959 133.554 19.0387 133.155 19.1982C132.757 19.3577 132.392 19.6084 132.062 19.9502C131.731 20.2806 131.452 20.7021 131.224 21.2148C131.008 21.7161 130.899 22.3143 130.899 23.0093C130.899 23.2257 130.922 23.4479 130.968 23.6758C131.013 23.8923 131.093 24.0916 131.207 24.2739C131.321 24.4562 131.475 24.6043 131.668 24.7183C131.862 24.8322 132.101 24.8892 132.386 24.8892C132.591 24.8892 132.825 24.8208 133.087 24.6841C133.36 24.5474 133.617 24.3366 133.856 24.0518C134.107 23.7669 134.329 23.408 134.522 22.9751C134.728 22.5422 134.87 22.0295 134.95 21.437C134.972 21.2775 135.047 21.1465 135.172 21.0439C135.297 20.93 135.445 20.873 135.616 20.873C135.776 20.873 135.912 20.9357 136.026 21.061C136.152 21.1864 136.22 21.3288 136.231 21.4883C136.243 21.7048 136.266 22.0124 136.3 22.4111C136.334 22.7985 136.408 23.1859 136.522 23.5732C136.647 23.9606 136.83 24.2967 137.069 24.5815C137.308 24.8664 137.639 25.0088 138.06 25.0088C138.333 25.0088 138.601 24.9347 138.863 24.7866C139.137 24.6385 139.399 24.4448 139.649 24.2056C139.911 23.9549 140.156 23.6758 140.384 23.3682C140.624 23.0492 140.84 22.7301 141.034 22.4111C141.227 22.0921 141.398 21.7845 141.546 21.4883C141.694 21.1921 141.82 20.9357 141.922 20.7192C141.979 20.5939 142.059 20.4971 142.162 20.4287C142.276 20.3604 142.395 20.3262 142.521 20.3262C142.714 20.3262 142.868 20.4002 142.982 20.5483C143.107 20.6851 143.17 20.8332 143.17 20.9927C143.17 21.0724 143.153 21.1522 143.119 21.2319ZM143.836 19.6768C143.768 19.859 143.683 20.0641 143.58 20.292C143.489 20.5199 143.381 20.7591 143.255 21.0098C143.153 21.2035 143.045 21.3573 142.931 21.4712C142.828 21.5737 142.691 21.625 142.521 21.625C142.327 21.625 142.173 21.568 142.059 21.4541C141.945 21.3288 141.888 21.1864 141.888 21.0269C141.888 20.9699 141.894 20.9243 141.905 20.8901C141.917 20.8446 141.945 20.7762 141.991 20.6851C142.287 20.1154 142.503 19.6198 142.64 19.1982C142.788 18.7653 142.908 18.3153 142.999 17.8481C142.919 17.5861 142.862 17.3639 142.828 17.1816C142.794 16.9993 142.777 16.8114 142.777 16.6177C142.777 16.2417 142.857 15.9398 143.016 15.7119C143.176 15.4727 143.398 15.353 143.683 15.353C143.945 15.353 144.15 15.467 144.298 15.6948C144.457 15.9227 144.537 16.2018 144.537 16.5322C144.537 16.7145 144.52 16.8968 144.486 17.0791C144.452 17.2614 144.406 17.4893 144.349 17.7627C144.611 18.4121 144.873 18.9875 145.135 19.4888C145.397 19.9901 145.631 20.4515 145.836 20.873C146.041 21.2832 146.206 21.6706 146.332 22.0352C146.468 22.3997 146.537 22.7643 146.537 23.1289C146.537 23.6074 146.44 24.0632 146.246 24.4961C146.052 24.929 145.733 25.2936 145.289 25.5898C145.346 25.6012 145.403 25.6069 145.46 25.6069C145.517 25.6069 145.574 25.6069 145.631 25.6069C146.28 25.6069 146.878 25.4588 147.425 25.1626C147.972 24.8664 148.462 24.4847 148.895 24.0176C149.339 23.5391 149.732 23.015 150.074 22.4453C150.416 21.8643 150.712 21.2889 150.963 20.7192C151.077 20.4572 151.236 20.3262 151.441 20.3262C151.635 20.3262 151.783 20.3945 151.886 20.5312C152 20.668 152.057 20.8161 152.057 20.9756C152.057 21.0667 152.04 21.1522 152.005 21.2319C151.88 21.5396 151.715 21.8927 151.51 22.2915C151.316 22.6789 151.077 23.0833 150.792 23.5049C150.519 23.915 150.2 24.3195 149.835 24.7183C149.47 25.117 149.06 25.4759 148.604 25.7949C148.16 26.1025 147.67 26.3475 147.135 26.5298C146.599 26.7235 146.013 26.8203 145.375 26.8203C144.611 26.8203 143.899 26.6836 143.238 26.4102C142.589 26.1481 142.059 25.7095 141.649 25.0942C141.581 24.9917 141.546 24.8835 141.546 24.7695C141.546 24.5986 141.609 24.4505 141.734 24.3252C141.871 24.1885 142.025 24.1201 142.196 24.1201C142.378 24.1201 142.532 24.1828 142.657 24.3081C142.669 24.3309 142.708 24.3708 142.777 24.4277C142.845 24.4733 142.925 24.5303 143.016 24.5986C143.119 24.6556 143.233 24.7069 143.358 24.7524C143.495 24.798 143.631 24.8208 143.768 24.8208C144.042 24.8208 144.269 24.7638 144.452 24.6499C144.645 24.536 144.799 24.3993 144.913 24.2397C145.027 24.0688 145.107 23.8923 145.152 23.71C145.209 23.5163 145.238 23.3511 145.238 23.2144C145.238 22.9295 145.192 22.6447 145.101 22.3599C145.01 22.075 144.89 21.7902 144.742 21.5054C144.605 21.2205 144.452 20.93 144.281 20.6338C144.121 20.3262 143.973 20.0072 143.836 19.6768ZM159.986 26.3247C159.861 26.5412 159.679 26.6494 159.439 26.6494C159.246 26.6494 159.086 26.5811 158.961 26.4443C158.847 26.3076 158.79 26.1595 158.79 26C158.79 25.8975 158.807 25.812 158.841 25.7437C158.875 25.6753 158.91 25.6126 158.944 25.5557L172.838 1.7666C172.895 1.66406 172.975 1.58431 173.077 1.52734C173.191 1.47038 173.299 1.44189 173.402 1.44189C173.596 1.44189 173.749 1.51025 173.863 1.64697C173.977 1.78369 174.034 1.9318 174.034 2.09131C174.034 2.17106 174.011 2.25651 173.966 2.34766C173.932 2.4388 173.897 2.51286 173.863 2.56982L159.986 26.3247ZM176.786 21.2832C176.706 21.1693 176.666 21.0496 176.666 20.9243C176.666 20.6965 176.757 20.5199 176.939 20.3945C177.498 20.0186 177.988 19.6825 178.409 19.3862C178.831 19.09 179.218 18.8223 179.571 18.583C179.924 18.3324 180.255 18.0988 180.562 17.8823C180.882 17.6659 181.212 17.4494 181.554 17.2329C181.907 17.005 182.283 16.7658 182.682 16.5151C183.092 16.2645 183.565 15.9797 184.1 15.6606C182.972 14.9657 181.964 14.265 181.075 13.5586C180.187 12.8408 179.429 12.1914 178.802 11.6104C178.176 11.0293 177.686 10.5451 177.333 10.1577C176.991 9.77035 176.797 9.54248 176.751 9.47412C176.672 9.38298 176.632 9.25765 176.632 9.09814C176.632 8.92725 176.694 8.77913 176.82 8.65381C176.945 8.51709 177.099 8.44873 177.281 8.44873C177.486 8.44873 177.657 8.53418 177.794 8.70508C177.805 8.71647 177.902 8.82471 178.084 9.02979C178.267 9.23486 178.523 9.5026 178.854 9.83301C179.184 10.1634 179.583 10.5451 180.05 10.978C180.517 11.411 181.041 11.8667 181.622 12.3452C182.215 12.8123 182.853 13.2852 183.536 13.7637C184.231 14.2308 184.96 14.6751 185.724 15.0967C185.963 15.222 186.083 15.41 186.083 15.6606C186.083 15.9227 185.974 16.1164 185.758 16.2417C185.165 16.5721 184.636 16.874 184.168 17.1475C183.713 17.4209 183.285 17.6886 182.887 17.9507C182.499 18.2013 182.123 18.452 181.759 18.7026C181.394 18.9419 181.007 19.2039 180.597 19.4888C180.198 19.7622 179.765 20.0641 179.298 20.3945C178.831 20.7135 178.301 21.0781 177.708 21.4883C177.595 21.568 177.475 21.6079 177.35 21.6079C177.247 21.6079 177.139 21.5794 177.025 21.5225C176.922 21.4541 176.843 21.3743 176.786 21.2832Z" fill="black"/>
</svg>
